<?xml version="1.0" encoding="UTF-8" standalone="no"?>
<svg
   xmlns:dc="http://purl.org/dc/elements/1.1/"
   xmlns:cc="http://creativecommons.org/ns#"
   xmlns:rdf="http://www.w3.org/1999/02/22-rdf-syntax-ns#"
   xmlns:svg="http://www.w3.org/2000/svg"
   xmlns="http://www.w3.org/2000/svg"
   viewBox="0 0 1122.52 793.70667"
   height="793.70667"
   width="1122.52"
   xml:space="preserve"
   id="svg2"
   version="1.1"><metadata
     id="metadata8"><rdf:RDF><cc:Work
         rdf:about=""><dc:format>image/svg+xml</dc:format><dc:type
           rdf:resource="http://purl.org/dc/dcmitype/StillImage" /></cc:Work></rdf:RDF></metadata><defs
     id="defs6"><clipPath
       id="clipPath24"
       clipPathUnits="userSpaceOnUse"><path
         id="path22"
         d="M 0,595.28 H 841.89 V 0 H 0 Z" /></clipPath></defs><g
     transform="matrix(1.3333333,0,0,-1.3333333,0,793.70667)"
     id="g10"><path
       id="path12"
       style="fill:#292929;fill-opacity:1;fill-rule:nonzero;stroke:none"
       d="M 765.937,147.625 H 75.545 v 272.757 h 690.392 z" /><g
       transform="translate(282.1211,333.8623)"
       id="g14"><path
         id="path16"
         style="fill:#ffffff;fill-opacity:1;fill-rule:nonzero;stroke:none"
         d="m 0,0 h -70.688 l 0.111,-16.896 h 19.261 v -48.426 h 17.89 v 48.426 h 16.594 z" /></g><g
       id="g18"><g
         clip-path="url(#clipPath24)"
         id="g20"><g
           transform="translate(308.9502,308.4941)"
           id="g26"><path
             id="path28"
             style="fill:#ffffff;fill-opacity:1;fill-rule:nonzero;stroke:none"
             d="m 0,0 v -15.604 c 0,-2.255 -0.845,-4.143 -2.533,-5.667 -1.691,-1.524 -3.63,-2.285 -5.815,-2.285 -2.32,0 -4.323,0.78 -6.012,2.34 -1.693,1.559 -2.536,3.435 -2.536,5.627 V 25.344 L -34.787,7.427 v -22.794 c 0,-7.102 2.569,-13.123 7.704,-18.069 5.135,-4.943 11.247,-7.414 18.337,-7.414 7.155,0 13.351,2.485 18.586,7.455 5.232,4.969 7.852,10.965 7.852,17.989 V 16.497 28.42 L 0,11.502 Z" /></g><g
           transform="translate(472.1514,308.8896)"
           id="g30"><path
             id="path32"
             style="fill:#ffffff;fill-opacity:1;fill-rule:nonzero;stroke:none"
             d="m 0,0 c -1.988,0 -3.678,0.369 -5.07,1.109 -1.393,0.737 -2.086,2.079 -2.086,4.025 0.131,1.072 0.545,1.829 1.24,2.264 0.697,0.436 1.574,0.654 2.637,0.654 H 20.572 L 37.566,24.948 H -2.686 c -5.634,0 -10.519,-1.877 -14.66,-5.63 -4.14,-3.753 -6.213,-8.385 -6.213,-13.897 0,-6.177 2.09,-11.326 6.264,-15.443 4.172,-4.12 9.475,-6.178 15.902,-6.178 3.114,0 4.67,-1.241 4.67,-3.724 0,-1.139 -0.365,-2.13 -1.091,-2.968 -0.731,-0.839 -1.657,-1.257 -2.784,-1.257 l -30.461,0.136 h -14.867 l -0.058,0.062 14.925,-0.062 v 48.961 h -21.655 l -35.909,-40.677 -12.911,11.425 29.121,29.277 H -95.172 L -121.113,-0.939 V 28.049 L -139.002,10.097 V -40.35 h 17.889 v 15.579 l 8.647,7.033 27.09,-22.392 0.004,-0.119 0.061,0.059 0.072,-0.061 v 0.129 L -48.948,1.294 V -16 h -18.35 l -10.385,-15.597 28.735,-0.305 v -8.448 h 17.889 0.455 16.29 15.507 c 5.496,0 10.2,2.06 14.112,6.177 3.908,4.119 5.865,8.935 5.865,14.447 0,5.645 -1.99,10.344 -5.965,14.098 C 11.229,-1.876 6.16,0 0,0" /></g><g
           transform="translate(532.626,285.0371)"
           id="g34"><path
             id="path36"
             style="fill:#ffffff;fill-opacity:1;fill-rule:nonzero;stroke:none"
             d="m 0,0 c -4.508,0 -8.383,1.457 -11.631,4.375 -3.246,2.913 -4.869,6.922 -4.869,12.025 0,5.299 1.623,9.359 4.869,12.176 3.248,2.815 7.059,4.223 11.43,4.223 4.508,0 8.383,-1.442 11.631,-4.324 3.244,-2.883 4.869,-6.908 4.869,-12.075 0,-5.235 -1.625,-9.278 -4.869,-12.125 C 8.182,1.424 4.373,0 0,0 M 69.094,20.668 V 48.825 L 33.471,12.049 c -0.01,-0.111 -0.032,-0.217 -0.045,-0.33 l -0.151,0.127 0.196,0.203 c 0.134,1.408 0.222,2.85 0.222,4.351 0,5.432 -0.83,10.17 -2.486,14.212 -1.656,4.04 -4.953,8.265 -9.889,12.672 -4.939,4.405 -11.976,6.609 -21.121,6.609 -9.142,0 -17.029,-2.964 -23.654,-8.895 -6.627,-5.932 -9.938,-14.13 -9.938,-24.598 0,-10.601 3.311,-18.835 9.938,-24.698 6.625,-5.864 14.477,-8.796 23.557,-8.796 1.832,0 3.599,0.155 5.33,0.393 H 5.621 L 5.52,-16.807 24.07,-16.875 51.801,10.758 V -17.15 l 28.625,28.809 v -28.534 h 16.996 v 65.7 z" /></g><g
           transform="translate(321.25,237.1943)"
           id="g38"><path
             id="path40"
             style="fill:#ffffff;fill-opacity:1;fill-rule:nonzero;stroke:none"
             d="m 0,0 c -1.016,-0.738 -2.984,-0.769 -4.737,-1.077 -1.723,-0.307 -3.2,-0.922 -3.2,-2.861 0,-1.722 1.477,-2.337 3.077,-2.337 3.445,0 4.86,2.153 4.86,3.598 z M 4.245,-8.151 C 3.783,-8.429 3.199,-8.583 2.369,-8.583 c -1.353,0 -2.215,0.738 -2.215,2.461 -1.446,-1.691 -3.384,-2.461 -5.599,-2.461 -2.891,0 -5.26,1.293 -5.26,4.461 0,3.6 2.676,4.368 5.383,4.891 2.892,0.554 5.353,0.369 5.353,2.337 0,2.278 -1.877,2.647 -3.538,2.647 -2.215,0 -3.845,-0.678 -3.968,-3.016 h -2.615 c 0.154,3.938 3.199,5.323 6.736,5.323 2.862,0 5.969,-0.647 5.969,-4.369 v -8.182 c 0,-1.231 0,-1.784 0.83,-1.784 0.215,0 0.461,0.03 0.8,0.153 z" /></g><g
           transform="translate(344.166,228.9805)"
           id="g42"><path
             id="path44"
             style="fill:#ffffff;fill-opacity:1;fill-rule:nonzero;stroke:none"
             d="M 0,0 H -2.461 V 2.523 H -2.522 C -3.63,0.555 -5.414,-0.369 -7.69,-0.369 c -4.184,0 -5.476,2.4 -5.476,5.814 v 10.459 h 2.615 V 5.138 c 0,-1.939 1.231,-3.2 3.23,-3.2 3.169,0 4.706,2.123 4.706,4.984 v 8.982 H 0 Z" /></g><g
           transform="translate(358.0088,230.9189)"
           id="g46"><path
             id="path48"
             style="fill:#ffffff;fill-opacity:1;fill-rule:nonzero;stroke:none"
             d="m 0,0 c 3.507,0 4.86,3.015 4.86,5.999 0,3.137 -1.415,6.029 -5.013,6.029 -3.569,0 -4.769,-3.046 -4.769,-6.152 C -4.922,2.892 -3.384,0 0,0 M 7.383,-1.938 H 4.769 V 0.216 H 4.706 c -0.861,-1.754 -2.891,-2.524 -5.075,-2.524 -4.892,0 -7.321,3.877 -7.321,8.368 0,4.492 2.399,8.275 7.259,8.275 1.631,0 3.969,-0.615 5.137,-2.492 h 0.063 v 8.183 h 2.614 z" /></g><path
           id="path50"
           style="fill:#ffffff;fill-opacity:1;fill-rule:nonzero;stroke:none"
           d="m 372.65,244.885 h 2.614 v -15.904 h -2.614 z m 2.615,2.861 h -2.614 v 3.199 h 2.614 z" /><g
           transform="translate(389.2598,230.9189)"
           id="g52"><path
             id="path54"
             style="fill:#ffffff;fill-opacity:1;fill-rule:nonzero;stroke:none"
             d="m 0,0 c 2.738,0 4.953,2.153 4.953,5.999 0,3.875 -2.215,6.029 -4.953,6.029 -2.737,0 -4.952,-2.154 -4.952,-6.029 C -4.952,2.153 -2.737,0 0,0 m 0,14.335 c 5.045,0 7.722,-3.66 7.722,-8.336 0,-4.645 -2.677,-8.307 -7.722,-8.307 -5.045,0 -7.721,3.662 -7.721,8.307 0,4.676 2.676,8.336 7.721,8.336" /></g><g
           transform="translate(416.3604,233.9951)"
           id="g56"><path
             id="path58"
             style="fill:#ffffff;fill-opacity:1;fill-rule:nonzero;stroke:none"
             d="m 0,0 c 0.093,-2.338 2.122,-3.076 4.276,-3.076 1.63,0 3.845,0.369 3.845,2.368 0,2.031 -2.584,2.369 -5.198,2.953 -2.584,0.585 -5.199,1.446 -5.199,4.492 0,3.2 3.168,4.522 5.937,4.522 3.506,0 6.306,-1.108 6.521,-4.984 H 7.567 C 7.383,8.306 5.599,8.952 3.876,8.952 2.308,8.952 0.492,8.521 0.492,6.921 c 0,-1.876 2.769,-2.184 5.198,-2.768 2.615,-0.585 5.199,-1.446 5.199,-4.522 0,-3.784 -3.536,-5.015 -6.767,-5.015 -3.568,0 -6.583,1.446 -6.736,5.384 z" /></g><g
           transform="translate(439.46,226.8584)"
           id="g60"><path
             id="path62"
             style="fill:#ffffff;fill-opacity:1;fill-rule:nonzero;stroke:none"
             d="m 0,0 c -1.199,-3.106 -2.275,-4.245 -4.613,-4.245 -0.616,0 -1.231,0.061 -1.815,0.277 v 2.399 c 0.492,-0.154 1.014,-0.369 1.537,-0.369 1.077,0 1.662,0.523 2.155,1.446 l 1.076,2.707 -6.307,15.811 h 2.953 L -0.369,5.015 h 0.062 l 4.461,13.011 h 2.768 z" /></g><g
           transform="translate(453.2725,233.9951)"
           id="g64"><path
             id="path66"
             style="fill:#ffffff;fill-opacity:1;fill-rule:nonzero;stroke:none"
             d="m 0,0 c 0.092,-2.338 2.121,-3.076 4.275,-3.076 1.631,0 3.846,0.369 3.846,2.368 0,2.031 -2.584,2.369 -5.199,2.953 -2.584,0.585 -5.199,1.446 -5.199,4.492 0,3.2 3.168,4.522 5.937,4.522 3.506,0 6.307,-1.108 6.522,-4.984 H 7.566 C 7.383,8.306 5.598,8.952 3.875,8.952 2.307,8.952 0.492,8.521 0.492,6.921 c 0,-1.876 2.768,-2.184 5.197,-2.768 2.616,-0.585 5.2,-1.446 5.2,-4.522 0,-3.784 -3.537,-5.015 -6.768,-5.015 -3.568,0 -6.582,1.446 -6.736,5.384 z" /></g><g
           transform="translate(473.7588,244.8848)"
           id="g68"><path
             id="path70"
             style="fill:#ffffff;fill-opacity:1;fill-rule:nonzero;stroke:none"
             d="M 0,0 H 3.168 V -2.307 H 0 v -9.875 c 0,-1.199 0.338,-1.415 1.969,-1.415 h 1.199 v -2.307 H 1.17 c -2.707,0 -3.785,0.554 -3.785,3.476 V -2.307 H -5.322 V 0 h 2.707 v 4.768 l 2.615,0 z" /></g><g
           transform="translate(493.9365,238.4551)"
           id="g72"><path
             id="path74"
             style="fill:#ffffff;fill-opacity:1;fill-rule:nonzero;stroke:none"
             d="M 0,0 C -0.123,2.492 -1.998,4.492 -4.582,4.492 -7.32,4.492 -8.951,2.431 -9.135,0 Z m 2.523,-4.43 c -0.707,-3.506 -3.23,-5.414 -6.798,-5.414 -5.077,0 -7.475,3.508 -7.629,8.367 0,4.769 3.138,8.276 7.474,8.276 5.631,0 7.354,-5.26 7.2,-9.106 H -9.135 c -0.094,-2.768 1.477,-5.229 4.951,-5.229 2.155,0 3.663,1.046 4.123,3.106 z" /></g><g
           transform="translate(502.4893,244.8848)"
           id="g76"><path
             id="path78"
             style="fill:#ffffff;fill-opacity:1;fill-rule:nonzero;stroke:none"
             d="m 0,0 h 2.461 v -2.338 h 0.06 c 1.17,1.784 2.954,2.707 5.137,2.707 1.94,0 3.723,-0.769 4.369,-2.707 1.077,1.692 2.953,2.707 4.983,2.707 3.17,0 5.291,-1.322 5.291,-4.614 v -11.659 h -2.613 v 10.428 c 0,1.969 -0.524,3.538 -3.077,3.538 -2.523,0 -4.154,-1.599 -4.154,-4.06 v -9.906 H 9.844 v 10.428 c 0,2.062 -0.647,3.538 -2.985,3.538 -3.107,0 -4.246,-2.861 -4.246,-4.06 v -9.906 H 0 Z" /></g><g
           transform="translate(533.4033,233.9951)"
           id="g80"><path
             id="path82"
             style="fill:#ffffff;fill-opacity:1;fill-rule:nonzero;stroke:none"
             d="m 0,0 c 0.092,-2.338 2.121,-3.076 4.275,-3.076 1.631,0 3.846,0.369 3.846,2.368 0,2.031 -2.584,2.369 -5.199,2.953 -2.584,0.585 -5.199,1.446 -5.199,4.492 0,3.2 3.168,4.522 5.937,4.522 3.506,0 6.307,-1.108 6.522,-4.984 H 7.566 C 7.383,8.306 5.598,8.952 3.875,8.952 2.307,8.952 0.492,8.521 0.492,6.921 c 0,-1.876 2.768,-2.184 5.197,-2.768 2.616,-0.585 5.2,-1.446 5.2,-4.522 0,-3.784 -3.537,-5.015 -6.768,-5.015 -3.568,0 -6.582,1.446 -6.736,5.384 z" /></g></g></g></g></svg>